<?xml version="1.0" standalone="no"?>
<!DOCTYPE svg PUBLIC "-//W3C//DTD SVG 1.1//EN" "http://www.w3.org/Graphics/SVG/1.1/DTD/svg11.dtd" >
<svg xmlns="http://www.w3.org/2000/svg">
<metadata>Generated by IcoMoon</metadata>
<defs>
<font id="icomoon" horiz-adv-x="1024">
<font-face units-per-em="1024" ascent="960" descent="-64" />
<missing-glyph horiz-adv-x="1024" />
<glyph unicode="&#x20;" horiz-adv-x="512" d="" />
<glyph unicode="&#xe900;" glyph-name="arrow-left" d="M479.299 448l261.611-266.076c36.121-36.737 36.121-96.3 0-133.038s-94.684-36.737-130.805 0l-327.013 332.595c-18.060 18.369-27.091 42.444-27.091 66.519s9.030 48.15 27.091 66.519l327.013 332.595c36.121 36.737 94.684 36.737 130.805 0s36.121-96.3 0-133.038l-261.611-266.076z" />
<glyph unicode="&#xe901;" glyph-name="arrow-right" d="M544.701 448l-261.611-266.076c-36.121-36.737-36.121-96.3 0-133.038s94.684-36.737 130.805 0l327.013 332.595c18.060 18.369 27.091 42.444 27.091 66.519s-9.030 48.15-27.091 66.519l-327.013 332.595c-36.121 36.737-94.684 36.737-130.805 0s-36.121-96.3 0-133.038l261.611-266.076z" />
<glyph unicode="&#xe902;" glyph-name="authorization-1" d="M512 29.842c115.2 0 213.65 40.96 295.497 122.661 81.774 81.92 122.661 180.297 122.661 295.497 0 116.59-40.96 215.479-122.661 296.521-81.92 81.115-180.297 121.637-295.497 121.637s-213.65-40.521-295.497-121.637c-81.774-81.042-122.661-179.931-122.661-296.521 0-115.2 40.96-213.65 122.661-295.497 81.92-81.774 180.297-122.661 295.497-122.661zM512 960c142.19 0 263.095-49.737 362.642-149.358 99.621-99.474 149.358-220.453 149.358-362.642 0-140.8-49.737-261.339-149.358-361.618-99.474-100.206-220.453-150.382-362.642-150.382-140.8 0-261.339 50.103-361.618 150.382-100.206 100.279-150.382 220.818-150.382 361.618 0 142.19 50.103 263.095 150.382 362.642 100.279 99.621 220.818 149.358 361.618 149.358zM616.594 607.963c9.874 0 17.701-2.779 23.406-8.485 6.415-5.844 10.483-14.168 10.678-23.444l0.001-0.035v-209.042h-59.758v-249.637h-157.842v249.637h-59.758v209.042c0 8.558 3.584 16.384 10.679 23.406 5.654 5.329 13.295 8.604 21.701 8.604 0.6 0 1.195-0.017 1.787-0.050l-0.082 0.004h209.189zM512 635.758c-46.958 0-70.437 24.137-70.437 72.485s23.479 72.558 70.437 72.558c48.347 0 72.558-24.137 72.558-72.558 0-48.274-24.137-72.485-72.558-72.485z" />
<glyph unicode="&#xe903;" glyph-name="authorization-2" d="M512 29.842c115.2 0 213.65 40.96 295.497 122.661 81.774 81.774 122.661 180.297 122.661 295.497 0 116.59-40.96 215.479-122.661 296.521-81.92 81.042-180.297 121.637-295.497 121.637s-213.65-40.594-295.497-121.637c-81.774-81.042-122.661-179.931-122.661-296.521 0-115.2 40.96-213.723 122.661-295.497 81.92-81.774 180.297-122.661 295.497-122.661zM512 960c142.19 0 263.095-49.737 362.642-149.358 99.621-99.474 149.358-220.453 149.358-362.642 0-140.8-49.737-261.339-149.358-361.618-99.474-100.206-220.453-150.382-362.642-150.382-140.8 0-261.339 50.103-361.618 150.382-100.206 100.279-150.382 220.818-150.382 361.618 0 142.19 50.103 263.095 150.382 362.642 100.279 99.621 220.818 149.358 361.618 149.358zM509.806 718.921c81.189 0 145.115-26.331 192.073-78.921 46.958-51.2 70.363-117.321 70.363-198.437 0-78.19-24.137-143.579-72.485-196.242-52.663-52.663-116.663-78.921-192-78.921-0.742-0.008-1.62-0.013-2.498-0.013-56.759 0-108.809 20.166-149.375 53.724l0.393-0.316c-41.253 34.085-66.121 83.163-74.679 147.163h128c4.242-61.147 41.984-91.794 113.079-91.794 35.547 0 64.731 14.994 87.479 44.837 21.285 31.305 31.963 73.216 31.963 125.806 0 54.126-9.947 95.378-29.842 123.758-21.358 28.526-50.469 42.715-87.479 42.715-68.242 0-106.642-30.574-115.2-91.721h38.4l-102.4-100.279-100.206 100.206h38.327c9.947 64.073 35.547 113.079 76.8 147.237s91.063 51.2 149.358 51.2z" />
<glyph unicode="&#xe904;" glyph-name="authorization-3" d="M657.042 456.558l258.194-115.2c9.947 31.232 14.921 66.853 14.921 106.642 0 116.59-40.96 215.479-122.661 296.521-81.92 81.115-180.297 121.637-295.497 121.637-72.558 0-139.41-17.115-200.558-51.2-61.015-34.208-111.179-81.004-148.304-137.174l-0.98-1.578 194.048-87.406c8.558 25.6 24.869 47.616 49.006 66.121 22.821 15.653 50.542 24.137 83.237 25.6v79.067h59.758v-78.994c48.626-2.31 92.815-19.58 128.517-47.27l-0.517 0.386-66.121-68.315c-31.305 19.895-61.147 29.915-89.6 29.915-17.115 0-30.574-2.926-40.521-8.558-11.497-5.743-19.255-17.425-19.255-30.918 0-0.393 0.007-0.785 0.020-1.175l-0.002 0.057c0-5.632 1.463-9.947 4.242-12.8l64-29.842 44.837-19.163 83.163-36.279zM117.321 586.679c-14.833-40.744-23.41-87.778-23.41-136.815 0-0.655 0.002-1.31 0.005-1.964v0.1c0-115.2 40.814-213.723 122.587-295.497s180.297-122.661 295.497-122.661c78.263 0 150.016 19.968 215.479 59.758 63.88 38.616 115.246 92.044 150.327 155.706l1.079 2.136-189.733 85.358c-5.404-32.767-23.384-60.555-48.719-78.748l-0.36-0.246c-25.109-20.223-56.65-33.417-91.134-36.168l-0.587-0.038v-78.994h-59.758v78.994c-55.442 0-107.374 20.626-155.721 61.879l70.437 70.363c35.547-31.232 73.874-46.885 115.2-46.885 17.042 0 31.963 4.242 44.763 12.8 12.8 8.485 19.237 21.285 19.237 38.4 0.002 0.156 0.003 0.341 0.003 0.526 0 12.661-5.817 23.963-14.924 31.379l-0.074 0.058-49.006 21.358-59.758 27.721-81.042 34.158-260.315 117.321zM512 960c142.19 0 263.095-49.737 362.642-149.358 99.621-99.474 149.358-220.453 149.358-362.642 0-140.8-49.737-261.339-149.358-361.618-99.474-100.206-220.453-150.382-362.642-150.382-140.8 0-261.339 50.103-361.618 150.382-100.206 100.279-150.382 220.818-150.382 361.618 0 142.19 50.103 263.095 150.382 362.642 100.279 99.621 220.818 149.358 361.618 149.358z" />
<glyph unicode="&#xe905;" glyph-name="authorization-4" d="M511.634 30.574c115.127 0 213.577 40.814 295.278 122.514 81.701 81.774 122.514 180.151 122.514 295.278 0 116.517-40.814 215.333-122.514 296.302-81.774 81.042-180.151 121.563-295.278 121.563s-213.577-40.521-295.278-121.563c-81.701-80.969-122.587-179.785-122.587-296.229 0-115.2 40.887-213.577 122.587-295.351 81.774-81.701 180.151-122.514 295.278-122.514zM511.634 960c142.117 0 262.949-49.737 362.423-149.211s149.211-220.306 149.211-362.423c0-140.727-49.737-261.12-149.211-361.326s-220.306-150.309-362.423-150.309c-140.727 0-261.12 50.103-361.326 150.309s-150.309 220.526-150.309 361.326c0 142.117 50.103 262.949 150.309 362.423s220.526 149.211 361.326 149.211zM326.144 318.318h370.981v87.406h-370.981v-87.406zM326.144 482.45h370.981v87.406h-370.981v-87.406z" />
<glyph unicode="&#xe906;" glyph-name="arrow-left-light" horiz-adv-x="546" d="M0 448c0 12.022 4.481 24.044 13.442 33.216l454.342 465.025c17.923 18.345 46.983 18.345 64.906 0s17.923-48.087 0-66.432l-421.889-431.809 421.889-431.809c17.923-18.345 17.923-48.087 0-66.432s-46.983-18.345-64.906 0l-454.342 465.025c-8.962 9.172-13.442 21.194-13.442 33.216z" />
<glyph unicode="&#xe907;" glyph-name="career" d="M859.136 281.6l14.409-194.414c0.252-2.378 0.396-5.136 0.396-7.928 0-37.856-26.457-69.532-61.889-77.548l-0.532-0.101-211.675-44.983c-27.317-6.060-58.693-9.532-90.88-9.532s-63.563 3.472-93.774 10.062l2.894-0.529-211.675 45.056c-37.669 8.046-63.122 45.056-59.831 85.504l15.506 194.414c9.947 110.958 81.993 201.070 177.298 235.739 22.162 28.891 28.672 22.235 46.446 32.622l75.483-381.952 28.818 245.321c-12.215 0-22.162 10.386-24.357 23.113l-4.462 39.278c-0.208 1.21-0.328 2.603-0.328 4.024 0 13.67 11.029 24.763 24.674 24.868h50.991c14.409 0 26.624-13.897 24.43-28.891l-4.462-39.278c-0.94-12.962-11.687-23.122-24.807-23.122-0.227 0-0.454 0.003-0.68 0.009l0.033-0.001 33.792-245.321 73.874 381.952c16.603-10.386 20.846-6.071 43.008-32.622 95.305-34.67 167.351-124.782 177.298-235.739zM381.513 687.031c-18.871 5.486-26.624 39.863-29.989 78.629-1.024 38.766 28.891 1.17 15.579 35.474-3.291 7.753-6.583 22.162 1.097 58.734 7.753 36.571-2.194 42.13 15.506 57.637 17.774 15.506 31.086 10.021 44.325 28.818 13.312 18.871 35.474 2.194 54.345 6.656 13.312 3.365 25.454 1.17 37.669 5.559s28.818-2.194 42.13-5.559c18.798-4.389 46.519 6.656 59.831-12.215 13.312-18.798 9.947-22.162 17.701-29.915 17.774-16.603 4.389-13.312 12.215-49.883 7.753-36.571 4.389-50.907 1.097-58.734-13.312-34.377 16.603 3.365 15.506-35.401s-9.947-73.143-27.721-78.702c-2.194-1.097-6.583-27.721-16.603-56.539-5.559-13.312-11.045-26.624-18.798-38.766-2.194-3.365-4.462-5.559-5.559-8.85-16.603-29.989-25.527-53.248-88.649-53.248-65.39 0-72.046 24.43-90.917 55.442-1.277 1.605-2.381 3.436-3.231 5.402l-0.060 0.157c-7.32 11.15-13.696 23.957-18.485 37.513l-0.386 1.253c-9.947 28.818-14.409 55.442-16.603 56.539z" />
<glyph unicode="&#xe908;" glyph-name="close" d="M577.551 448l262.206 262.206c18.102 18.102 18.102 47.45 0 65.551s-47.45 18.102-65.551 0l-262.206-262.206-262.206 262.206c-18.102 18.102-47.45 18.102-65.551 0s-18.102-47.45 0-65.551l262.206-262.206-262.206-262.206c-18.102-18.102-18.102-47.45 0-65.551s47.45-18.102 65.551 0l262.206 262.206 262.206-262.206c18.102-18.102 47.45-18.102 65.551 0s18.102 47.45 0 65.551l-262.206 262.206z" />
<glyph unicode="&#xe909;" glyph-name="arrow-down" d="M512 415.299l266.076 261.611c36.737 36.121 96.3 36.121 133.038 0s36.737-94.684 0-130.805l-332.595-327.013c-18.369-18.060-42.444-27.091-66.519-27.091s-48.15 9.030-66.519 27.091l-332.595 327.013c-36.737 36.121-36.737 94.684 0 130.805s96.3 36.121 133.038 0l266.076-261.611z" />
<glyph unicode="&#xe90a;" glyph-name="like" d="M259.84 581.888h-2.56v-645.888h540.032c71.040 0 138.88 56.448 152.384 126.080l64.192 331.264c20.16 104.128-49.472 188.544-155.52 188.544h-174.592c27.2 56 38.336 183.040 13.44 283.072-24.832 100.032-224.96 156.672-219.264-14.656-5.696-299.008-216.192-260.224-218.048-268.416zM0 517.568c0 35.52 28.608 64.32 64 64.32h77.824c0 0 0.001 0 0.001 0 35.346 0 64-28.654 64-64 0-0.113 0-0.225-0.001-0.337v0.017-517.248c0-35.52-28.608-64.32-64-64.32h-77.824c0 0-0.001 0-0.001 0-35.346 0-64 28.654-64 64 0 0.113 0 0.225 0.001 0.337v-0.017 517.248z" />
<glyph unicode="&#xe90b;" glyph-name="location" d="M827.977 409.161h0.219l-285.184-455.973c-6.57-10.39-17.997-17.189-31.013-17.189s-24.442 6.799-30.924 17.039l-0.089 0.15-267.118 428.398c-42.261 58.792-67.584 132.229-67.584 211.581 0 0.136 0 0.272 0 0.408v-0.021c0 0.13 0 0.285 0 0.439 0 202.037 163.7 365.84 365.699 366.007h0.016c201.947 0 365.714-163.986 365.714-366.299 0-67.291-18.139-130.341-49.737-184.539zM512 447.195c80.823 0 146.286 65.609 146.286 146.505 0 0.022 0 0.048 0 0.073 0 80.821-65.477 146.349-146.278 146.432h-0.008c-80.823 0-146.286-65.609-146.286-146.505s65.463-146.505 146.286-146.505z" />
<glyph unicode="&#xe90c;" glyph-name="logo" d="M219.231 413.689l8.894 69.647h-13.736l-3.789-39.205-1.185-11.037-2.918 9.933-6.78 21.043h-11.557l-6.341-21.182-2.545-9.662-1.068 10.767-4.535 39.336h-14.416l8.96-69.639h16.896l6.473 21.87 2.048 7.877 2.048-7.68 6.715-22.060h16.837zM152.327 449.397c0.066 1.829 0.095 3.313 0.095 4.462 0 4.52-0.607 8.682-1.807 12.471s-2.962 7.066-5.281 9.801c-2.319 2.743-5.208 4.879-8.645 6.415-3.438 1.529-7.387 2.297-11.864 2.297h0.020c-0.134 0.002-0.267 0.003-0.401 0.003-4.324 0-8.415-1-11.892-2.709l-0.154-0.070c-3.593-1.805-6.723-4.396-9.209-7.61l0.066 0.091c-2.647-3.485-4.688-7.455-6.035-12.014-1.404-4.637-2.099-9.801-2.099-15.462 0-5.72 0.695-10.745 2.099-15.082 1.419-4.345 3.445-7.987 6.1-10.928l0.020-0.022c2.597-2.873 5.84-5.15 9.672-6.663 3.811-1.507 8.126-2.267 12.932-2.267h0.017c4.208 0.018 8.338 0.368 11.912 0.965 1.989 0.322 3.942 0.688 5.844 1.097 1.909 0.41 3.672 0.863 5.281 1.375v13.29l0.503 0.143c-3.551-1.166-7.225-2.060-11.401-2.71-3.511-0.534-6.788-0.79-9.86-0.79-2.655 0-5.061 0.41-7.241 1.236-2.172 0.819-4.037 2.026-5.595 3.599-1.551 1.573-2.75 3.533-3.599 5.859s-1.28 5.018-1.28 8.090h41.523c0.117 1.602 0.205 3.306 0.278 5.135zM80.267 413.696v46.738c0 3.708-0.41 7.058-1.214 10.043-0.812 2.999-2.019 5.559-3.643 7.68-1.609 2.121-3.613 3.767-6.027 4.937-2.399 1.163-5.215 1.748-8.448 1.748-2.319 0-4.411-0.278-6.283-0.819-1.858-0.556-3.599-1.346-5.222-2.37-1.609-1.031-3.116-2.275-4.506-3.738s-2.721-3.087-4.008-4.871l-0.38 10.284h-13.107v-69.639h15.163v44.083c2.619 3.928 5.091 7.029 7.431 9.311 2.341 2.289 4.805 3.43 7.373 3.43 5.135 0 7.702-3.818 7.702-11.44v-45.385h15.17zM177.006 547.643c96.256-55.091 113.971-110.175 53.189-165.281l9.187-34.026-39.804 10.591c-5.772-3.925-13.141-8.522-20.666-12.879l-1.905-1.018c-118.009-67.547-177.006-33.77-177.006 101.303 0 135.080 58.997 168.85 177.006 101.31zM133.369 468.458c-1.066 1.256-2.394 2.256-3.902 2.92l-0.069 0.027c-1.412 0.606-3.056 0.959-4.782 0.959-0.037 0-0.073 0-0.11 0h0.006c-3.811 0-6.949-1.404-9.384-4.213s-3.891-6.78-4.352-11.893h26.236c0.037 2.736-0.278 5.12-0.936 7.161-0.601 1.941-1.527 3.624-2.726 5.071l0.020-0.024zM452.71 437.899l-1.485-21.065h-39.131l-4.001-56.839c-0.951-22.455-11.579-33.331-31.89-32.636h-18.125l1.477 21.058h8.587c8.214-0.695 12.332 3.496 12.347 12.624l3.935 55.801h-41.999l1.477 21.058h41.999l1.704 24.21h-46.76l1.551 22.104h21.95c-3.038 9.362-4.986 20.171-5.406 31.37l-0.007 0.22h25.776c-0.168-11.242 1.331-21.76 4.454-31.59h24.817c4.297 9.192 7.429 19.857 8.846 31.057l0.055 0.534h25.768c-2.18-11.894-5.599-22.485-10.203-32.415l0.343 0.825h20.999l-1.558-22.104h-42.949l-1.704-24.21h39.131zM472.24 557.912h49.627c17.137-0.709 32.585 1.741 46.336 7.365l-1.631-23.157c-11.791-4.923-25.307-7.029-40.528-6.32h-28.628l-2.677-43.162h70.627l-1.551-22.111h-20.999l-10.167-144.223h-27.67l10.167 144.223h-21.95l-4.681-66.319c-0.805-38.612-15.111-65.616-42.928-81.064l1.404 20.005c-19.675 9.816-29.023 30.53-28.065 62.113h22.901c-1.536-21.76 2.392-38.261 11.783-49.481 3.672 7.014 6.261 21.058 7.739 42.116l10.898 160.015zM353.061 405.263h21.957c-2.333-33.002-17.576-55.106-45.714-66.319l1.185 16.845c12.244 11.205 19.763 27.714 22.572 49.474zM459.388 546.326l-1.551-22.104h-106.898l1.558 22.104h38.181l0.446 18.703h30.537l-0.439-18.703h38.159zM741.003 565.277l-4.754-67.379h53.453l-1.631-23.157h-151.749l-2.297-32.636h117.387l-8.155-115.8h-31.503l6.532 92.643h-85.892l-1.039-14.738c-0.293-40.002-20.97-67.372-62.091-82.117l1.477 21.065c17.189 9.099 26.032 26.309 26.544 51.58l11.557 170.54h33.404l-4.293-67.379h68.71l4.754 67.379h29.579zM930.662 480.007h89.717l-7.856-111.594c-0.717-28.065-13.744-41.399-39.080-40.009h-21.007l1.477 21.065h13.371c10.818 0 16.289 5.603 16.457 16.837l6.451 91.589h-18.139c-4.352-61.762-25.622-106.328-63.81-133.691l1.777 25.264c20.224 25.256 32.315 61.396 36.272 108.427h-23.859c-4.901-60.372-26.141-104.58-63.751-132.645l1.704 24.21c20.97 26.668 33.061 62.808 36.272 108.434h-15.265l1.551 22.111c31.532 14.029 59.143 42.803 82.856 63.159h-72.536l1.558 22.111h121.205l-1.565-22.111c-29.681-23.859-57.615-52.634-83.8-63.159zM873.128 394.73l-1.558-22.104c-21.832-10.623-47.207-18.078-73.95-20.968l-1.022-0.090 1.851 26.324c8.265 0 16.304 1.046 24.086 3.16l8.009 113.693h-21.95l1.558 22.111h21.943l3.416 48.421h28.628l-3.416-48.421h20.041l-1.551-22.111h-20.041l-7.556-107.388c6.495 2.114 13.678 4.564 21.504 7.373z" />
<glyph unicode="&#xe90d;" glyph-name="message" horiz-adv-x="922" d="M315.904 140.8h289.792c5.531-15.202 8.73-32.749 8.73-51.044 0-84.831-68.769-153.6-153.6-153.6s-153.6 68.769-153.6 153.6c0 18.295 3.198 35.843 9.067 52.115l-0.337-1.070zM460.8 38.4c28.277 0 51.2 22.923 51.2 51.2s-22.923 51.2-51.2 51.2v0c-28.277 0-51.2-22.923-51.2-51.2s22.923-51.2 51.2-51.2v0zM713.626 396.8v204.8c0 141.385-114.615 256-256 256s-256-114.615-256-256v0-204.8l-98.662-197.376c-0.345-0.671-0.548-1.464-0.548-2.304 0-2.822 2.283-5.111 5.104-5.12h700.212c0.011 0 0.023 0 0.036 0 2.828 0 5.12 2.292 5.12 5.12 0 0.84-0.202 1.633-0.561 2.333l0.013-0.029-98.714 197.376zM910.131 245.248c7.204-14.020 11.426-30.592 11.426-48.149 0-41.939-24.092-78.252-59.192-95.852l-0.618-0.281c-14.117-7.168-30.783-11.366-48.428-11.366-0.002 0-0.005 0-0.007 0h-705.024c-0.122 0-0.266-0.001-0.41-0.001-59.454 0-107.674 48.095-107.878 107.501v0.020c0 16.691 3.891 33.178 11.418 48.128l88.525 175.718v180.634c0 197.939 161.536 358.4 360.858 358.4 199.27 0 360.858-160.461 360.858-358.4v-180.634l88.474-175.77z" />
<glyph unicode="&#xe90e;" glyph-name="play" d="M832.516 338.052l-638.993-380.767c-60.728-36.187-139.294-16.293-175.481 44.436-11.808 19.816-18.042 42.455-18.042 65.523v761.534c0 70.692 57.308 128 128 128 23.068 0 45.706-6.234 65.523-18.042l638.993-380.767c60.728-36.187 80.623-114.752 44.436-175.481-10.889-18.274-26.161-33.546-44.436-44.436z" />
<glyph unicode="&#xe90f;" glyph-name="plus" d="M425.846 526.769h-314.882c-43.064 0-78.964-35.266-78.964-78.769 0-43.806 35.353-78.769 78.964-78.769h314.882v-314.882c0-43.064 35.266-78.964 78.769-78.964 43.806 0 78.769 35.353 78.769 78.964v314.882h314.882c43.064 0 78.964 35.266 78.964 78.769 0 43.806-35.353 78.769-78.964 78.769h-314.882v314.882c0 43.064-35.266 78.964-78.769 78.964-43.806 0-78.769-35.353-78.769-78.964v-314.882z" />
<glyph unicode="&#xe910;" glyph-name="private" d="M731.429 521.143v109.714c0 121.187-98.242 219.429-219.429 219.429s-219.429-98.242-219.429-219.429v0-109.714h438.857zM182.857 521.143v109.714c0 181.781 147.362 329.143 329.143 329.143s329.143-147.362 329.143-329.143v0-109.714h36.571c40.396 0 73.143-32.747 73.143-73.143v0-438.857c0-40.396-32.747-73.143-73.143-73.143v0h-731.429c-40.396 0-73.143 32.747-73.143 73.143v0 438.857c0 40.396 32.747 73.143 73.143 73.143v0h36.571z" />
<glyph unicode="&#xe911;" glyph-name="qzone" d="M299.008 302.784c23.488 26.624 325.888 197.44 325.888 197.44l-394.88 53.248 528 6.272s18.816-15.68 0-37.632c-18.752-21.888-299.2-214.592-299.2-214.592l318.912-25.6-9.728 56.64 256 249.536-353.792 51.392-158.208 320.512-158.208-320.64-353.792-51.328 256-249.536-60.416-352.384 316.416 166.4 316.416-166.4-49.6 289.28-479.808-21.184s-23.552 21.952 0 48.64z" />
<glyph unicode="&#xe912;" glyph-name="arrow-right-light" horiz-adv-x="546" d="M546.133 448c0 12.022-4.481 24.044-13.442 33.216l-454.342 465.025c-17.923 18.345-46.983 18.345-64.906 0s-17.923-48.087 0-66.432l421.889-431.809-421.889-431.809c-17.923-18.345-17.923-48.087 0-66.432s46.983-18.345 64.906 0l454.342 465.025c8.962 9.172 13.442 21.194 13.442 33.216z" />
<glyph unicode="&#xe913;" glyph-name="right" d="M428.482 355.685l-129.497 129.497c-24.005 24.005-64.927 24.404-89.92-0.589-25.168-25.168-25.257-65.252-0.589-89.92l173.97-173.97c22.213-22.213 58.911-24.213 84.070-4.584 5.062 2.834 9.825 6.406 14.134 10.715l348.214 348.214c25.314 25.314 25.049 65.571 0.055 90.565-25.168 25.168-65.541 24.969-90.565-0.055l-309.872-309.872z" />
<glyph unicode="&#xe914;" glyph-name="search" d="M821.862 212.89l169.984-171.93c9.14-9.244 14.786-21.959 14.786-35.993 0-14.136-5.729-26.934-14.991-36.199l-0.205-0.205c-9.211-9.214-21.937-14.914-35.994-14.914-14.159 0-26.967 5.782-36.193 15.114l-0.005 0.005-169.472 171.469c-78.286-63.397-179.091-101.779-288.861-101.779-254.493 0-460.8 206.307-460.8 460.8s206.307 460.8 460.8 460.8c254.493 0 460.8-206.307 460.8-460.8 0-108.625-37.586-208.471-100.461-287.243l0.714 0.926zM460.8 140.8c197.939 0 358.4 160.461 358.4 358.4s-160.461 358.4-358.4 358.4v0c-197.939 0-358.4-160.461-358.4-358.4s160.461-358.4 358.4-358.4v0z" />
<glyph unicode="&#xe915;" glyph-name="weibo" d="M382.528 89.792c-159.808-7.872-289.024 76.416-289.024 188.48 0 112.256 129.216 202.304 289.024 210.048 160 7.68 289.472-61.568 289.472-173.568s-129.472-217.28-289.472-224.96zM722.944 454.016c-38.016 7.744-19.52 29.184-19.52 29.184s37.12 64.448-7.36 111.232c-55.168 57.984-189.248-7.36-189.248-7.36-51.136-16.768-37.568 7.552-30.336 48.96 0 48.768-15.872 131.2-152.256 82.56-136.192-49.088-253.184-220.672-253.184-220.672-81.28-114.112-70.592-202.24-70.592-202.24 20.352-194.688 217.152-248.128 370.176-260.8 161.024-13.184 378.368 58.368 444.224 205.44 65.92 147.392-53.76 205.696-91.904 213.76zM376.832 279.744c-1.887 3.485-2.996 7.63-2.996 12.034 0 8.152 3.801 15.416 9.727 20.117l0.053 0.041c11.904 9.28 24.32 6.656 29.632-2.688 5.44-9.6 1.536-23.936-8.32-32.192-10.24-8-22.72-6.848-28.16 2.688zM255.872 233.088c0 26.24 21.504 53.76 51.52 57.088 34.56 3.456 56.96-17.408 56.96-43.776 0-26.304-24.32-50.56-54.208-54.208-30.080-3.712-54.208 14.528-54.208 40.96zM208.512 236.288s-1.664-50.112 43.072-75.648c94.080-53.504 190.912-21.12 239.872 45.312s20.224 228.032-140.8 208.448c-160.768-19.84-142.208-178.112-142.208-178.112zM956.928 552.448c2.112 14.976 3.52 30.080 3.52 45.248 0 166.784-129.088 302.4-287.744 302.4-22.016 0-39.808-18.688-39.808-41.792 0-23.040 17.792-41.792 39.808-41.792 114.752 0 208.064-98.176 208.064-218.88 0-13.44-1.152-26.88-3.456-40 0.32-1.664 0-3.2 0-4.864 0-23.040 17.856-41.792 39.808-41.792 18.56 0 33.92 13.44 38.4 31.36 0.779 3.006 1.243 6.464 1.28 10.025v0.023zM832 597.696c0 92.352-71.488 167.488-159.36 167.488-18.419-0.495-33.161-15.544-33.161-34.036 0-0.274 0.003-0.547 0.010-0.82l-0.001 0.040c0-19.264 14.848-34.88 33.152-34.88 51.328 0 93.056-43.84 93.056-97.792 0-4.288-0.256-8.448-0.704-12.608l0.768-0.064c-0.192-1.408-0.768-2.56-0.768-4.032 0-19.264 14.784-34.88 33.152-34.88 16.768 0 30.016 13.248 32.256 30.272 0.448 0.768 0.384 1.728 0.448 2.56 0 0.704 0.448 1.28 0.448 2.048 0 0.384-0.256 0.64-0.256 1.024 0.512 5.184 0.96 10.368 0.96 15.68z" />
<glyph unicode="&#xe916;" glyph-name="weixin" d="M237.44 621.824l-0.044 0.001c0.294-0.005 0.588-0.008 0.883-0.008 27.527 0 49.897 22.083 50.361 49.543 0 27.392-22.976 49.536-51.2 49.536-28.288 0-51.2-22.144-51.2-49.536l0.001-0.044c0.464-27.417 22.833-49.499 50.361-49.499 0.295 0 0.589 0.003 0.839 0.007zM490.816 720.896c-28.224 0-51.072-22.144-51.072-49.536v-0.040c0.429-27.412 22.784-49.502 50.298-49.502 0.272 0 0.544 0.002 0.774 0.006l-0.041 0.001c0.271-0.004 0.543-0.006 0.815-0.006 27.514 0 49.869 22.090 50.298 49.542 0 27.392-22.848 49.536-51.072 49.536zM708.736 613.376c-183.168 0.064-331.776-124.416-331.776-278.016 0-25.152 4.096-49.472 11.52-72.64-7.534-0.471-16.339-0.739-25.206-0.739-40.751 0-80.179 5.668-117.538 16.258l3.032-0.735-6.144 1.792-131.648-67.072 35.2 110.272-3.328 2.048c-86.848 55.68-142.848 143.36-142.848 241.92 0 168.256 163.008 304.576 364.16 304.576 182.080 0 333.056-111.872 359.872-257.92-4.221 0.205-9.167 0.322-14.141 0.322-0.429 0-0.857-0.001-1.285-0.003h0.066zM403.776 333.632c0 142.080 137.792 257.28 307.712 257.28 169.856 0 307.584-115.2 307.584-257.28 0-83.328-47.36-157.44-120.768-204.352l-2.816-1.792 29.696-93.12-111.168 56.64-5.184-1.472c-30.656-8.512-63.36-13.184-97.344-13.184-169.92 0-307.712 115.2-307.712 257.28zM775.296 422.272c0-23.168 19.264-41.856 43.136-41.856 0.211-0.004 0.46-0.006 0.71-0.006 23.26 0 42.162 18.659 42.554 41.825v0.037c-0.392 23.168-19.265 41.799-42.49 41.799-0.272 0-0.543-0.003-0.814-0.008l0.041 0.001c-0.192 0.003-0.419 0.005-0.646 0.005-23.224 0-42.097-18.63-42.49-41.76v-0.037zM561.216 422.272c0-23.168 19.328-41.856 43.136-41.856 0.211-0.004 0.46-0.006 0.71-0.006 23.26 0 42.162 18.659 42.554 41.825v0.037c-0.392 23.168-19.265 41.799-42.49 41.799-0.272 0-0.543-0.003-0.814-0.008l0.041 0.001c-0.192 0.003-0.419 0.005-0.646 0.005-23.224 0-42.097-18.63-42.49-41.76v-0.037z" />
<glyph unicode="&#xe917;" glyph-name="qq" d="M921.015 376.101c-14.009 32.588-30.849 60.693-50.872 86.18l0.622-0.822c15.214 11.264 25.893 34.962 25.893 62.683 0 38.327-20.261 69.486-45.275 69.778 2.194 14.629 3.657 29.55 3.657 44.837 0 177.445-150.821 321.243-336.896 321.243s-336.896-143.799-336.896-321.243c0-17.042 1.829-33.646 4.462-50.030-16.677-10.386-28.526-35.328-28.526-64.585 0-16.823 4.096-32.183 10.679-44.251-23.224-24.343-43.235-52.055-59.16-82.256l-0.964-2.005c-47.762-91.429-40.667-183.954-11.264-198.949 15.141-7.826 54.491 16.969 93.184 62.025 6.144-53.175 32.183-101.742 72.338-140.8-66.194-18.798-110.080-55.808-104.229-93.477 7.314-47.543 91.063-78.043 187.099-68.096 70.51 7.314 127.854 34.377 150.528 67.145 5.851-0.219 11.703-0.731 17.701-0.731 10.313 0 20.48 0.512 30.501 1.243 24.43-31.013 78.336-56.905 143.579-64.878 93.184-11.41 173.714 17.847 180.005 65.317 4.974 37.376-37.742 74.898-101.669 94.72 37.669 37.157 62.683 82.651 70.144 132.681 34.377-45.202 69.486-74.606 87.918-70.656 21.65 4.608 37.157 101.815-2.56 194.926z" />
<glyph unicode="&#xe918;" glyph-name="arrow-top" d="M197.824 633.856c-3.594-3.914-5.796-9.156-5.796-14.912 0-12.185 9.87-22.064 22.051-22.080h162.882v-638.784c0-12.16 9.856-22.080 22.016-22.080h225.92c12.16 0 22.080 9.856 22.080 22.080v638.784h162.88c12.149 0.106 21.956 9.98 21.956 22.143 0 5.814-2.24 11.104-5.905 15.055l0.013-0.014-300.736 319.040c-4.038 4.297-9.758 6.973-16.103 6.973-6.437 0-12.231-2.754-16.266-7.149l-0.015-0.016-294.976-319.040z" />
<glyph unicode="&#xe919;" glyph-name="iphone" d="M309.312 145.472v669.056h405.12v-669.056h-405.12zM512-11.648c-0.153-0.002-0.333-0.003-0.514-0.003-29.004 0-52.546 23.386-52.798 52.331v0.024c0 28.992 23.808 52.416 53.312 52.416 29.44 0 53.312-23.424 53.312-52.416-0.252-28.968-23.794-52.355-52.798-52.355-0.181 0-0.361 0.001-0.541 0.003h0.027zM298.688 960c-58.88 0-106.688-44.288-106.688-98.88v-826.24c0-54.592 47.808-98.88 106.688-98.88h426.624c58.88 0 106.688 44.288 106.688 98.88v826.24c0 54.592-47.808 98.88-106.688 98.88h-426.624z" />
<glyph unicode="&#xe91a;" glyph-name="network" horiz-adv-x="1152" d="M972.032 465.216c-0.036-28.744-23.347-52.032-52.096-52.032-0.068 0-0.135 0-0.202 0h0.010c-14.154 0.167-26.904 6.038-36.087 15.415l-34.057 34.057-19.328 19.584-212.416-191.744c-11.041-10.106-25.811-16.299-42.028-16.299-22.943 0-42.991 12.395-53.813 30.853l-0.159 0.294-69.376 118.336-195.392-170.688c-10.903-9.512-25.259-15.313-40.97-15.313-19.242 0-36.453 8.701-47.911 22.383l-0.080 0.098c-9.389 11.171-15.093 25.711-15.093 41.583 0 19.417 8.536 36.84 22.060 48.722l0.073 0.063 251.968 219.456c10.905 9.581 25.296 15.428 41.053 15.428 22.953 0 43.008-12.405 53.827-30.877l0.159-0.294 68.864-116.672 150.016 135.424-7.936 8.064-32.704 33.28c-9.409 9.577-15.218 22.719-15.218 37.217 0 14.434 5.757 27.523 15.1 37.097l-0.010-0.011c9.192 9.386 21.942 15.257 36.065 15.424h163.679c39.808 0 72.064-32.768 72.064-73.152v-165.632zM1008 960h-864c-79.552 0-144-65.472-144-146.304v-731.392c0-80.832 64.448-146.304 144-146.304h864c79.552 0 144 65.472 144 146.304v731.392c0 80.832-64.448 146.304-144 146.304z" />
<glyph unicode="&#xe91b;" glyph-name="arrow-up" d="M512 480.701l266.076-261.611c36.737-36.121 96.3-36.121 133.038 0s36.737 94.684 0 130.805l-332.595 327.013c-18.369 18.060-42.444 27.091-66.519 27.091s-48.15-9.030-66.519-27.091l-332.595-327.013c-36.737-36.121-36.737-94.684 0-130.805s96.3-36.121 133.038 0l266.076 261.611z" />
<glyph unicode="&#xe91c;" glyph-name="minus" horiz-adv-x="1229" d="M96 448c0 47.128 38.892 85.333 85.544 85.333h852.911c47.245 0 85.544-37.876 85.544-85.333 0-47.128-38.892-85.333-85.544-85.333h-852.911c-47.245 0-85.544 37.876-85.544 85.333z" />
<glyph unicode="&#xe91d;" glyph-name="music-stop" horiz-adv-x="896" d="M128 960c70.692 0 128-57.308 128-128v-768c0-70.692-57.308-128-128-128s-128 57.308-128 128v768c0 70.692 57.308 128 128 128zM768 960c70.692 0 128-57.308 128-128v-768c0-70.692-57.308-128-128-128s-128 57.308-128 128v768c0 70.692 57.308 128 128 128z" />
<glyph unicode="&#xe91e;" glyph-name="music" horiz-adv-x="1034" d="M512 387.765c33.265 0 60.235 26.97 60.235 60.235s-26.97 60.235-60.235 60.235c-33.265 0-60.235-26.97-60.235-60.235s26.97-60.235 60.235-60.235zM512 327.529c-66.53 0-120.471 53.941-120.471 120.471s53.941 120.471 120.471 120.471c66.53 0 120.471-53.941 120.471-120.471s-53.941-120.471-120.471-120.471zM512 237.176c116.435 0 210.824 94.389 210.824 210.824s-94.389 210.824-210.824 210.824c-116.435 0-210.824-94.389-210.824-210.824s94.389-210.824 210.824-210.824zM859.768 592.053c7.755 3.208 11.369 11.942 7.966 19.561 0 0-0.241 0.843-3.704 7.966-19.034 38.972-44.454 74.556-75.174 105.276-32.105 32.105-69.527 58.428-110.592 77.704-5.391 2.545-2.56 1.19-2.56 1.19-7.65 3.343-16.384-0.105-19.652-7.981l-11.43-27.558c-3.208-7.755 0.271-16.715 7.996-20.179 0 0-1.702 0.888 4.216-1.988 33.099-16.113 63.322-37.692 89.434-63.789 25.751-25.751 47.104-55.522 63.142-88.124 3.117-6.34 2.696-5.692 2.696-5.692 3.343-7.529 12.228-11.083 20.104-7.816l27.558 11.43zM164.232 303.947c-7.755-3.208-11.294-12.122-7.906-19.742 0 0-0.422 0.678 2.696-5.813 19.14-39.74 44.89-76.017 76.122-107.249 31.247-31.232 67.524-57.013 107.279-76.137 6.475-3.117 5.813-2.696 5.813-2.696 7.665-3.388 16.444 0.045 19.712 7.921l11.43 27.558c3.208 7.755-0.467 16.806-8.011 20.179 0 0 2.018-1.024-3.765 1.762-33.265 16.158-63.654 37.798-89.856 64-26.052 26.052-47.586 56.215-63.699 89.224-2.906 5.993-2.093 4.457-2.093 4.457-3.373 7.605-12.288 11.234-20.164 7.966l-27.558-11.43zM512-64c-282.775 0-512 229.24-512 512 0 282.775 229.225 512 512 512 282.76 0 512-229.225 512-512 0-282.76-229.24-512-512-512z" />
<glyph unicode="&#xe91f;" glyph-name="download" d="M733.095 527.849l-177.244-205.733c-10.793-12.534-26.424-20.405-43.843-20.405-17.475 0-33.106 7.87-43.971 20.405l-177.178 205.733c-9.421 10.936-15.155 25.418-15.155 41.3 0 34.056 26.424 61.705 59.054 61.705 17.48 0 33.050-7.87 43.904-20.41l74.22-86.22v374.068c0 34.056 26.491 61.705 59.126 61.705 32.64 0 59.064-27.648 59.064-61.705v-374.068l74.214 86.22c10.788 12.539 26.486 20.41 43.971 20.41 32.568 0 58.993-27.648 58.993-61.705 0-15.882-5.734-30.369-15.155-41.3zM964.893-48.678h-905.83c-32.64 0-59.064 27.11-59.064 60.503v302.536c0 33.388 26.424 60.493 59.064 60.493 32.635 0 59.121-27.105 59.121-60.493v-242.048h787.651v242.048c0 33.388 26.496 60.493 59.064 60.493 32.635 0 59.064-27.105 59.064-60.493v-302.536c0-33.393-26.429-60.503-59.069-60.503z" />
<glyph unicode="&#xe920;" glyph-name="triangle-down" d="M575.822 217.196l340.743 340.844c33.483 33.493 33.365 87.677-0.263 121.025-16.103 15.969-37.902 24.934-60.626 24.934h-681.485c-47.455 0-85.924-38.315-85.924-85.578 0-22.632 9.002-44.343 25.035-60.381l340.743-340.844c33.483-33.493 87.887-33.61 121.515-0.262l0.263 0.262z" />
<glyph unicode="&#xe921;" glyph-name="triangle-up" d="M575.822 678.804l340.743-340.844c33.483-33.493 33.365-87.677-0.263-121.025-16.103-15.969-37.902-24.934-60.626-24.934h-681.485c-47.455 0-85.924 38.315-85.924 85.578 0 22.632 9.002 44.343 25.035 60.381l340.743 340.844c33.483 33.493 87.887 33.61 121.515 0.262l0.263-0.262z" />
<glyph unicode="&#xe922;" glyph-name="video" horiz-adv-x="1034" d="M282.624 131.584v61.44h684.032v-61.44h-684.032zM67.584 131.584v61.44h123.904v-61.44h-123.904zM414.72 619.008c0 20.48 22.528 32.768 39.936 21.504l189.44-118.784c16.384-10.24 16.384-33.792 0-44.032l-189.44-118.784c-17.408-11.264-39.936 2.048-39.936 21.504v238.592zM71.68 94.72h890.88c22.622 0 40.96 18.338 40.96 40.96v629.76c0 22.622-18.338 40.96-40.96 40.96h-890.88c-22.622 0-40.96-18.338-40.96-40.96v-629.76c0-22.622 18.338-40.96 40.96-40.96z" />
<glyph unicode="&#xe923;" glyph-name="activity" d="M820.603 562.215l108.111 177.231c11.723 19.692 11.723 44.636 0 64.328s-32.564 31.508-54.707 31.508h-276.139v124.718h-523.623c-41.681 0-74.245-34.133-74.245-74.831v-941.292h104.204v458.174h187.566v-112.903h583.54c22.143 0 44.286 11.815 54.707 31.508 11.723 19.692 11.723 44.636-1.303 65.641l-108.111 175.918z" />
<glyph unicode="&#xe924;" glyph-name="share" horiz-adv-x="1195" d="M1179.528 569.824l-453.604 390.179v-186.598c-158.487-15.996-722.404-122.527-725.918-831.117 0 0 136.719 446.393 725.918 462.777v-225.439l453.604 390.197z" />
<glyph unicode="&#xe925;" glyph-name="cup" d="M469.333 362.667h85.333v-256h-85.333v256zM85.333 789.333v-213.333c0-70.692 57.308-128 128-128 12.981 0 25.607 1.905 37.655 5.605l47.869 14.698 36.177-34.622c47.378-45.34 110.043-71.014 176.965-71.014s129.587 25.674 176.965 71.014l36.177 34.622 47.869-14.698c12.049-3.699 24.675-5.605 37.655-5.605 70.692 0 128 57.308 128 128v213.333h-170.667v85.333h-512v-85.333h-170.667zM170.667 874.667v85.333h682.667v-85.333h170.667v-298.667c0-117.821-95.513-213.333-213.333-213.333-21.821 0-42.877 3.276-62.702 9.363-61.297-58.66-144.422-94.697-235.964-94.697s-174.668 36.036-235.964 94.697c-19.826-6.087-40.881-9.363-62.702-9.363-117.821 0-213.333 95.513-213.333 213.333v298.667h170.667zM170.667 960h682.667v-341.333c0-188.513-152.82-341.333-341.333-341.333s-341.333 152.82-341.333 341.333v341.333zM512 106.667c-63.171 0-118.325-34.321-147.835-85.333h295.669c-29.509 51.012-84.664 85.333-147.835 85.333zM256-64c0 141.385 114.615 256 256 256s256-114.615 256-256h-512z" />
<glyph unicode="&#xe926;" glyph-name="equipment" horiz-adv-x="1170" d="M585.136 594.286c-121.169 0-219.421-98.223-219.421-219.421s98.252-219.436 219.421-219.436c121.198 0 219.436 98.238 219.436 219.436s-98.238 219.421-219.436 219.421zM996.944 611.682c-25.448 0-46.087 20.651-46.087 46.159s20.626 46.159 46.087 46.159c25.435 0 46.073-20.651 46.073-46.159s-20.639-46.159-46.073-46.159zM292.571 374.864c0 161.58 130.998 292.565 292.565 292.565 161.593 0 292.578-130.998 292.578-292.565 0-161.593-130.985-292.578-292.578-292.578-161.58 0-292.565 130.998-292.565 292.578zM870.321 816.907l-27.389 90.374c-13.343 46.015-36.431 52.719-83.196 52.719h-349.174c-46.765 0-69.827-6.704-83.196-52.719l-27.389-90.374h-215.326c-46.765 0-84.651-40.026-84.651-89.433v-702.042c0-49.407 37.886-89.433 84.651-89.433h1000.984c46.765 0 84.651 40.026 84.651 89.433v702.042c0.013 49.393-37.873 89.433-84.638 89.433h-215.326z" />
<glyph unicode="&#xe927;" glyph-name="still" d="M136.895 883.468c-33.415 0-60.362-26.947-60.362-60.362v-576.674l175.697 190.787c21.558 23.714 59.284 23.714 80.842 0l105.634-115.335 253.305 320.135c20.469 26.947 61.44 26.947 81.92 0l173.541-218.813v399.899c0 33.415-26.947 60.362-60.362 60.362h-750.215zM887.11 959.999c75.453 0 136.893-61.44 136.893-136.893v-750.215c0-75.453-61.44-136.893-136.893-136.893h-750.215c-75.453 0-136.893 61.44-136.893 136.893v750.215c0 75.453 61.44 136.893 136.893 136.893h750.215zM264.084 782.147c-47.621 0-86.232-38.61-86.232-86.232s38.61-86.232 86.232-86.232c47.621 0 86.232 38.61 86.232 86.232s-38.61 86.232-86.232 86.232z" />
<glyph unicode="&#xe928;" glyph-name="delete" d="M693.079 890.313l-40.152 69.689h-287.589l-40.137-69.689h-239.863v-154.447h847.619v154.447h-239.878zM333.14 449.69l75.429 78.832 100.556-105.115 100.556 105.115 75.444-78.832-100.571-105.131 100.587-105.147-75.444-78.832-100.571 105.131-100.556-105.115-75.429 78.832 100.571 105.131-100.571 105.131zM130.717 40.037c0-57.453 54.583-104.035 121.905-104.035h513.036c67.322 0 121.905 46.582 121.905 104.035v654.016h-756.846v-654.016z" />
<glyph unicode="&#xe929;" glyph-name="edit" d="M1022.279 742.834l-215.478 215.48c-2.326 2.248-6.016 2.248-8.34 0l-714.122-714.12c-0.868-0.866-1.442-1.988-1.64-3.198l-0.7 0.778-82-305.74 305.74 82-0.78 0.78c1.212 0.198 2.332 0.77 3.2 1.64l714.12 714.040c2.248 2.326 2.248 6.014 0 8.34z" />
<glyph unicode="&#xe92a;" glyph-name="qr" d="M801.132 108.649h-73.499c-26.491 0-48.188-21.433-48.188-47.628v-72.633c0-26.195 21.697-47.628 48.188-47.628h73.499c26.504 0 48.188 21.433 48.188 47.628v72.633c0 26.195-21.685 47.628-48.188 47.628zM393.938 103.893c0-26.195-21.685-47.628-48.188-47.628h-180.706c-26.504 0-48.188 21.433-48.188 47.628v178.605c0 26.195 21.685 47.628 48.188 47.628h180.706c26.504 0 48.188-21.433 48.188-47.628v-178.605zM970.992 612.321h-73.487c-26.504 0-48.188 21.433-48.188 47.628v72.633c0 26.195-21.685 47.628-48.188 47.628h-73.487c-26.504 0-48.188-21.433-48.188-47.628v-72.633c0-26.195-21.685-47.628-48.188-47.628h-73.487c-26.504 0-48.188 21.433-48.188 47.628v72.633c0 26.195-21.685 47.628-48.188 47.628h-73.487c-26.504 0-48.188-21.433-48.188-47.628v-240.521c0-26.207-21.685-47.628-48.188-47.628h-243.351c-26.504 0-48.188-21.433-48.188-47.628v-408.409c0-26.195 21.685-47.628 48.188-47.628h413.214c26.504 0 48.188 21.433 48.188 47.628v72.621c0 26.207 21.685 47.628 48.188 47.628h73.487c26.504 0 48.188 21.433 48.188 47.628v72.644c0 26.183-21.685 47.628-48.188 47.628h-73.487c-26.504 0-48.188 21.433-48.188 47.628v72.633c0 26.195 21.685 47.628 48.188 47.628h73.487c26.504 0 48.188-21.433 48.188-47.628v-72.633c0-26.195 21.685-47.628 48.188-47.628h73.487c26.504 0 48.188 21.433 48.188 47.628v72.633c0 26.195 21.685 47.628 48.188 47.628h73.487c26.504 0 48.188 21.421 48.188 47.628v72.633c0 26.183-21.685 47.628-48.188 47.628v0zM970.991 276.544h-73.487c-26.504 0-48.188-21.444-48.188-47.628v-72.644c0-26.195 21.685-47.628 48.188-47.628h73.487c26.504 0 48.188 21.433 48.188 47.628v72.644c0 26.183-21.685 47.628-48.188 47.628zM274.673 259.87h-39.755c-26.504 0-48.188-21.433-48.188-47.628v-39.293c0-26.195 21.685-47.628 48.188-47.628h39.755c26.504 0 48.188 21.433 48.188 47.628v39.293c0 26.195-21.685 47.628-48.188 47.628zM557.779 780.207h73.487c26.504 0 48.188 21.433 48.188 47.628v72.633c0 26.195-21.685 47.628-48.188 47.628h-73.487c-26.504 0-48.188-21.433-48.188-47.628v-72.633c0-26.195 21.685-47.628 48.188-47.628zM48.191 612.317h73.487c26.504 0 48.188 21.433 48.188 47.628v72.633c0 26.195 21.685 47.628 48.188 47.628h73.487c26.504 0 48.188 21.433 48.188 47.628v72.633c0 26.195-21.685 47.628-48.188 47.628h-243.351c-26.504 0-48.188-21.433-48.188-47.628v-240.521c0-26.195 21.685-47.628 48.188-47.628zM970.991 948.091h-73.487c-26.504 0-48.188-21.433-48.188-47.628v-72.633c0-26.195 21.685-47.628 48.188-47.628h73.487c26.504 0 48.188 21.433 48.188 47.628v72.633c0 26.195-21.685 47.628-48.188 47.628z" />
<glyph unicode="&#xe92b;" glyph-name="stick" d="M520.727 954.279c-5.052 7.628-12.527 7.628-20.048 0l-496.916-504.038c-5.018-5.078-5.018-15.291 0-20.45l110.422-109.417 313.664 315.741v-672.117c0-15.314 10.058-27.998 25.213-27.998h117.897c12.538 0 25.065 12.683 25.065 27.998v672.117l313.676-315.741 110.536 109.417c5.018 5.159 5.018 15.372 0 20.45l-499.51 504.038z" />
<glyph unicode="&#xe92c;" glyph-name="question" d="M521.387 753.494c-63.147 0-112.64-17.92-149.333-53.76-37.547-35.84-55.467-85.333-55.467-148.48h97.28c0 35.84 6.827 64 21.333 83.627 16.213 23.893 42.667 34.987 80.213 34.987 29.013 0 52.053-7.68 68.267-23.893 15.36-16.213 23.893-38.4 23.893-66.56 0-21.333-7.68-41.813-23.040-60.587l-10.24-11.947c-55.467-49.493-88.747-85.333-99.84-108.373-11.947-23.040-17.067-51.2-17.067-83.627v-11.947h98.133v11.947c0 20.48 4.267 38.4 12.8 55.467 7.68 15.36 18.773 29.867 34.133 42.667 40.96 35.84 65.707 58.88 73.387 67.413 20.48 27.307 31.573 62.293 31.573 104.96 0 52.053-17.067 93.013-51.2 122.88-34.133 30.72-79.36 45.227-134.827 45.227zM506.027 261.12c-18.773 0-34.133-5.973-46.933-17.92s-18.773-27.307-18.773-46.080c0-18.773 5.973-34.133 18.773-46.080s28.16-18.773 46.933-18.773c18.773 0 34.133 5.973 46.933 17.92s19.627 28.16 19.627 46.933c0 18.773-6.827 34.133-18.773 46.080-12.8 11.947-29.013 17.92-47.787 17.92zM512-21.333c259.206 0 469.333 210.128 469.333 469.333s-210.128 469.333-469.333 469.333c-259.206 0-469.333-210.128-469.333-469.333s210.128-469.333 469.333-469.333zM512-64c-282.77 0-512 229.23-512 512s229.23 512 512 512c282.77 0 512-229.23 512-512s-229.23-512-512-512z" />
<glyph unicode="&#xe92d;" glyph-name="quit" d="M440.889 416c0-17.664-15.929-32-35.556-32s-35.556 14.336-35.556 32v128c0 17.664 15.929 32 35.556 32s35.556-14.336 35.556-32v-128zM903.111 960h-782.222c-19.627 0-35.556-14.336-35.556-32v-960c0-17.664 15.929-32 35.556-32s35.556 14.336 35.556 32v928h142.222v-800c0-14.656 11.093-27.52 26.951-31.040l568.889-128c2.844-0.64 5.76-0.96 8.604-0.96 7.822 0 15.573 2.304 21.902 6.72 8.604 6.080 13.653 15.424 13.653 25.28v960c0 17.664-15.929 32-35.556 32v0z" />
</font>
</defs>
</svg>
